<mxfile host="Electron" agent="Mozilla/5.0 (Windows NT 10.0; Win64; x64) AppleWebKit/537.36 (KHTML, like Gecko) draw.io/24.7.17 Chrome/128.0.6613.36 Electron/32.0.1 Safari/537.36" version="24.7.17">
  <diagram name="Trang-1" id="WliZ3eJUwD6K7-ZVZmxe">
    <mxGraphModel dx="1434" dy="844" grid="1" gridSize="10" guides="1" tooltips="1" connect="1" arrows="1" fold="1" page="1" pageScale="1" pageWidth="850" pageHeight="1100" math="0" shadow="0">
      <root>
        <mxCell id="0" />
        <mxCell id="1" parent="0" />
        <mxCell id="onoTXUQ5WIw2-qz2d7RT-10" style="edgeStyle=orthogonalEdgeStyle;rounded=0;orthogonalLoop=1;jettySize=auto;html=1;exitX=0.5;exitY=1;exitDx=0;exitDy=0;entryX=0.5;entryY=0;entryDx=0;entryDy=0;" edge="1" parent="1" source="onoTXUQ5WIw2-qz2d7RT-1" target="onoTXUQ5WIw2-qz2d7RT-4">
          <mxGeometry relative="1" as="geometry" />
        </mxCell>
        <mxCell id="onoTXUQ5WIw2-qz2d7RT-1" value="Bắt đầu vẽ" style="rounded=1;whiteSpace=wrap;html=1;" vertex="1" parent="1">
          <mxGeometry x="365" y="20" width="120" height="60" as="geometry" />
        </mxCell>
        <mxCell id="onoTXUQ5WIw2-qz2d7RT-12" style="edgeStyle=orthogonalEdgeStyle;rounded=0;orthogonalLoop=1;jettySize=auto;html=1;exitX=0.5;exitY=1;exitDx=0;exitDy=0;entryX=0.5;entryY=0;entryDx=0;entryDy=0;" edge="1" parent="1" source="onoTXUQ5WIw2-qz2d7RT-2" target="onoTXUQ5WIw2-qz2d7RT-7">
          <mxGeometry relative="1" as="geometry" />
        </mxCell>
        <mxCell id="onoTXUQ5WIw2-qz2d7RT-2" value="Chạy vòng lập qua từng phần tử của mảng các cạnh" style="rounded=0;whiteSpace=wrap;html=1;" vertex="1" parent="1">
          <mxGeometry x="365" y="220" width="120" height="60" as="geometry" />
        </mxCell>
        <mxCell id="onoTXUQ5WIw2-qz2d7RT-11" style="edgeStyle=orthogonalEdgeStyle;rounded=0;orthogonalLoop=1;jettySize=auto;html=1;exitX=0.5;exitY=1;exitDx=0;exitDy=0;entryX=0.5;entryY=0;entryDx=0;entryDy=0;" edge="1" parent="1" source="onoTXUQ5WIw2-qz2d7RT-4" target="onoTXUQ5WIw2-qz2d7RT-2">
          <mxGeometry relative="1" as="geometry" />
        </mxCell>
        <mxCell id="onoTXUQ5WIw2-qz2d7RT-4" value="Nhận P và vị trí" style="shape=parallelogram;perimeter=parallelogramPerimeter;whiteSpace=wrap;html=1;fixedSize=1;" vertex="1" parent="1">
          <mxGeometry x="365" y="120" width="120" height="60" as="geometry" />
        </mxCell>
        <mxCell id="onoTXUQ5WIw2-qz2d7RT-13" style="edgeStyle=orthogonalEdgeStyle;rounded=0;orthogonalLoop=1;jettySize=auto;html=1;exitX=0.5;exitY=1;exitDx=0;exitDy=0;entryX=0.5;entryY=0;entryDx=0;entryDy=0;" edge="1" parent="1" source="onoTXUQ5WIw2-qz2d7RT-7" target="onoTXUQ5WIw2-qz2d7RT-8">
          <mxGeometry relative="1" as="geometry" />
        </mxCell>
        <mxCell id="onoTXUQ5WIw2-qz2d7RT-7" value="Lấy toạ độ X Y của đỉnh hiện tại và đỉnh tiếp theo" style="rounded=0;whiteSpace=wrap;html=1;" vertex="1" parent="1">
          <mxGeometry x="365" y="320" width="120" height="60" as="geometry" />
        </mxCell>
        <mxCell id="onoTXUQ5WIw2-qz2d7RT-14" style="edgeStyle=orthogonalEdgeStyle;rounded=0;orthogonalLoop=1;jettySize=auto;html=1;exitX=0.5;exitY=1;exitDx=0;exitDy=0;entryX=0.5;entryY=0;entryDx=0;entryDy=0;" edge="1" parent="1" source="onoTXUQ5WIw2-qz2d7RT-8" target="onoTXUQ5WIw2-qz2d7RT-9">
          <mxGeometry relative="1" as="geometry" />
        </mxCell>
        <mxCell id="onoTXUQ5WIw2-qz2d7RT-8" value="Bắt đầu vẽ từ toạ độ X Y hiện tại đến toạ độ X Y tiếp theo" style="rounded=0;whiteSpace=wrap;html=1;" vertex="1" parent="1">
          <mxGeometry x="365" y="420" width="120" height="60" as="geometry" />
        </mxCell>
        <mxCell id="onoTXUQ5WIw2-qz2d7RT-9" value="Kết thúc vẽ" style="rounded=1;whiteSpace=wrap;html=1;" vertex="1" parent="1">
          <mxGeometry x="365" y="520" width="120" height="60" as="geometry" />
        </mxCell>
      </root>
    </mxGraphModel>
  </diagram>
</mxfile>
